<svg width="372" height="289" viewBox="0 0 372 289" fill="none" xmlns="http://www.w3.org/2000/svg">
<rect x="2" y="21" width="368" height="253" fill="#EBE0C5" stroke="#DC962B" stroke-width="4"/>
<rect opacity="0.4" x="4" y="167" width="364" height="77" fill="#84A887"/>
<rect x="4" y="227" width="364" height="45" fill="#E9CB6A"/>
<path d="M97.668 235.809C98.0221 236.03 98.3542 236.473 98.6641 237.137C99.0182 237.757 99.3281 238.487 99.5938 239.328C99.9036 240.125 100.147 240.988 100.324 241.918C100.546 242.848 100.723 243.711 100.855 244.508C101.033 245.305 101.143 245.991 101.188 246.566C101.232 247.098 101.232 247.43 101.188 247.562C101.099 247.74 100.833 247.917 100.391 248.094C99.9922 248.271 99.3945 248.47 98.5977 248.691C97.8008 248.913 96.694 249.156 95.2773 249.422C95.1888 246.987 95.0117 245.15 94.7461 243.91C94.4805 242.626 94.1927 241.719 93.8828 241.188C93.5286 240.568 93.1523 240.258 92.7539 240.258C92.3555 240.435 92.0013 240.656 91.6914 240.922C91.3815 241.143 91.1159 241.387 90.8945 241.652C90.6289 241.962 90.3854 242.294 90.1641 242.648C90.0755 242.781 89.987 243.091 89.8984 243.578C89.8099 244.065 89.7214 244.796 89.6328 245.77C89.6328 246.079 89.6107 246.721 89.5664 247.695C89.5664 248.669 89.5443 249.798 89.5 251.082C89.5 252.366 89.4779 253.716 89.4336 255.133C89.4336 256.549 89.4115 257.878 89.3672 259.117C89.3672 260.312 89.3451 261.331 89.3008 262.172C89.3008 263.013 89.2786 263.5 89.2344 263.633C89.1458 263.854 88.9245 264.164 88.5703 264.562C88.2161 264.961 87.8177 265.337 87.375 265.691C86.9323 266.001 86.5117 266.267 86.1133 266.488C85.7148 266.665 85.4492 266.643 85.3164 266.422C85.1836 266.289 85.0508 265.714 84.918 264.695C84.7852 263.677 84.6302 262.438 84.4531 260.977C84.3203 259.471 84.1654 257.833 83.9883 256.062C83.8112 254.292 83.6562 252.587 83.5234 250.949C83.3906 249.311 83.2799 247.85 83.1914 246.566C83.1029 245.238 83.0365 244.286 82.9922 243.711C82.9479 242.87 82.9036 241.94 82.8594 240.922C82.8151 239.904 82.7708 238.952 82.7266 238.066C82.7266 237.137 82.7266 236.34 82.7266 235.676C82.7708 234.967 82.8594 234.547 82.9922 234.414C83.0807 234.281 83.3685 234.259 83.8555 234.348C84.3867 234.392 84.9401 234.525 85.5156 234.746C86.1354 234.923 86.7109 235.167 87.2422 235.477C87.7734 235.786 88.1276 236.074 88.3047 236.34C88.4375 236.561 88.5703 236.893 88.7031 237.336C89.5443 236.893 90.3411 236.495 91.0938 236.141C91.8906 235.742 92.6432 235.454 93.3516 235.277C94.1042 235.1 94.8346 235.056 95.543 235.145C96.2513 235.189 96.9596 235.41 97.668 235.809ZM108.492 252.809C109.201 252.543 109.997 252.255 110.883 251.945C111.812 251.591 112.698 251.281 113.539 251.016C114.38 250.706 115.133 250.44 115.797 250.219C116.461 249.997 116.948 249.82 117.258 249.688C117.214 249.201 117.147 248.647 117.059 248.027C117.014 247.363 116.948 246.743 116.859 246.168C116.771 245.548 116.66 245.017 116.527 244.574C116.395 244.132 116.262 243.866 116.129 243.777C115.775 243.645 115.177 243.534 114.336 243.445C113.539 243.312 112.698 243.335 111.812 243.512C110.971 243.689 110.197 244.021 109.488 244.508C108.78 244.995 108.382 245.77 108.293 246.832C108.204 247.54 108.182 248.426 108.227 249.488C108.271 250.551 108.359 251.658 108.492 252.809ZM122.902 253.871C122.858 253.96 122.327 254.137 121.309 254.402C120.29 254.668 119.073 254.956 117.656 255.266C116.24 255.531 114.734 255.819 113.141 256.129C111.547 256.395 110.174 256.616 109.023 256.793C109.245 258.564 109.51 260.158 109.82 261.574C110.13 262.947 110.396 263.81 110.617 264.164C110.839 264.474 111.126 264.762 111.48 265.027C111.79 265.249 112.167 265.47 112.609 265.691C113.096 265.868 113.672 266.001 114.336 266.09C114.823 266.223 115.288 266.046 115.73 265.559C116.085 265.116 116.395 264.341 116.66 263.234C116.97 262.128 117.125 260.379 117.125 257.988C118.497 257.767 119.56 257.634 120.312 257.59C121.109 257.546 121.685 257.546 122.039 257.59C122.482 257.634 122.747 257.701 122.836 257.789C122.88 257.922 122.88 258.254 122.836 258.785C122.792 259.316 122.681 259.98 122.504 260.777C122.371 261.53 122.194 262.371 121.973 263.301C121.796 264.186 121.574 265.049 121.309 265.891C121.043 266.688 120.755 267.418 120.445 268.082C120.135 268.702 119.803 269.145 119.449 269.41C118.387 270.207 117.059 270.605 115.465 270.605C113.871 270.561 112.299 270.34 110.75 269.941C109.201 269.499 107.806 268.99 106.566 268.414C105.327 267.794 104.552 267.285 104.242 266.887C104.021 266.621 103.822 265.957 103.645 264.895C103.467 263.788 103.312 262.46 103.18 260.91C103.091 259.361 103.025 257.656 102.98 255.797C102.936 253.938 102.958 252.122 103.047 250.352C103.18 248.581 103.357 246.943 103.578 245.438C103.844 243.932 104.198 242.715 104.641 241.785C105.305 240.457 106.389 239.372 107.895 238.531C109.4 237.69 110.993 237.115 112.676 236.805C114.358 236.495 115.952 236.451 117.457 236.672C119.007 236.893 120.158 237.38 120.91 238.133C121.353 238.576 121.751 239.461 122.105 240.789C122.46 242.073 122.681 243.645 122.77 245.504C122.77 245.681 122.792 246.19 122.836 247.031C122.88 247.872 122.902 248.78 122.902 249.754C122.947 250.684 122.969 251.569 122.969 252.41C122.969 253.251 122.947 253.738 122.902 253.871ZM146.477 239.328C146.521 239.815 146.432 240.568 146.211 241.586C146.034 242.604 145.746 243.622 145.348 244.641C144.993 245.659 144.507 246.544 143.887 247.297C143.311 248.049 142.647 248.426 141.895 248.426C141.363 248.426 140.921 248.005 140.566 247.164C140.257 246.323 140.013 245.349 139.836 244.242C139.703 243.091 139.592 241.962 139.504 240.855C139.415 239.749 139.327 238.974 139.238 238.531C139.105 238.31 138.84 238.111 138.441 237.934C138.087 237.712 137.733 237.602 137.379 237.602C137.025 237.602 136.626 237.889 136.184 238.465C135.741 239.04 135.298 239.704 134.855 240.457C134.457 241.21 134.103 241.962 133.793 242.715C133.527 243.467 133.417 244.021 133.461 244.375C133.461 244.641 133.749 245.105 134.324 245.77C134.9 246.434 135.608 247.23 136.449 248.16C137.335 249.046 138.264 250.02 139.238 251.082C140.257 252.1 141.186 253.141 142.027 254.203C142.868 255.221 143.577 256.195 144.152 257.125C144.772 258.055 145.104 258.852 145.148 259.516C145.193 260.312 144.971 261.331 144.484 262.57C144.042 263.81 143.466 265.005 142.758 266.156C142.049 267.307 141.297 268.303 140.5 269.145C139.703 269.986 138.995 270.428 138.375 270.473C137.755 270.517 136.848 270.185 135.652 269.477C134.501 268.724 133.328 267.861 132.133 266.887C130.982 265.868 129.941 264.872 129.012 263.898C128.126 262.924 127.617 262.216 127.484 261.773C127.352 261.375 127.263 260.844 127.219 260.18C127.219 259.516 127.241 258.852 127.285 258.188C127.374 257.523 127.507 256.97 127.684 256.527C127.861 256.04 128.082 255.797 128.348 255.797C128.613 255.797 129.145 256.262 129.941 257.191C130.738 258.077 131.602 259.095 132.531 260.246C133.461 261.353 134.368 262.371 135.254 263.301C136.139 264.186 136.781 264.629 137.18 264.629C137.401 264.629 137.645 264.474 137.91 264.164C138.176 263.81 138.419 263.411 138.641 262.969C138.862 262.526 139.039 262.083 139.172 261.641C139.349 261.154 139.438 260.777 139.438 260.512C139.393 260.113 139.039 259.538 138.375 258.785C137.711 258.033 136.87 257.191 135.852 256.262C134.833 255.332 133.727 254.358 132.531 253.34C131.336 252.277 130.229 251.281 129.211 250.352C128.193 249.422 127.352 248.581 126.688 247.828C126.023 247.076 125.669 246.5 125.625 246.102C125.581 245.703 125.714 245.083 126.023 244.242C126.333 243.357 126.732 242.405 127.219 241.387C127.706 240.324 128.259 239.24 128.879 238.133C129.543 237.026 130.207 236.008 130.871 235.078C131.535 234.148 132.177 233.396 132.797 232.82C133.461 232.201 134.036 231.891 134.523 231.891C135.497 231.891 136.648 232.156 137.977 232.688C139.349 233.219 140.655 233.883 141.895 234.68C143.134 235.432 144.197 236.229 145.082 237.07C145.967 237.911 146.432 238.664 146.477 239.328ZM163.211 237.867C163.255 238 163.255 238.376 163.211 238.996C163.167 239.572 163.078 240.236 162.945 240.988C162.857 241.697 162.746 242.361 162.613 242.98C162.48 243.556 162.37 243.91 162.281 244.043C161.839 244.087 161.396 244.109 160.953 244.109C160.51 244.065 160.09 244.043 159.691 244.043H158.297C158.253 246.965 158.186 249.865 158.098 252.742C158.009 255.62 157.898 258.21 157.766 260.512C157.633 262.77 157.478 264.607 157.301 266.023C157.168 267.44 157.035 268.171 156.902 268.215C156.592 268.259 156.238 268.126 155.84 267.816C155.441 267.507 155.043 267.13 154.645 266.688C154.29 266.201 153.958 265.714 153.648 265.227C153.383 264.695 153.228 264.23 153.184 263.832C152.962 261.132 152.763 258.564 152.586 256.129C152.409 253.65 152.276 251.458 152.188 249.555C152.01 247.341 151.9 245.283 151.855 243.379C151.368 243.335 150.882 243.268 150.395 243.18C149.952 243.091 149.487 243.003 149 242.914C148.557 242.826 148.092 242.737 147.605 242.648C147.517 242.56 147.406 242.361 147.273 242.051C147.141 241.697 147.008 241.32 146.875 240.922C146.786 240.523 146.698 240.147 146.609 239.793C146.521 239.395 146.477 239.107 146.477 238.93C146.477 238.797 146.964 238.664 147.938 238.531C148.956 238.398 150.195 238.288 151.656 238.199C151.568 235.853 151.501 233.816 151.457 232.09C151.457 230.319 151.523 229.124 151.656 228.504C151.789 227.663 152.143 226.866 152.719 226.113C153.339 225.316 153.98 224.63 154.645 224.055C155.353 223.479 155.995 223.059 156.57 222.793C157.19 222.483 157.589 222.395 157.766 222.527C157.898 222.616 158.009 223.081 158.098 223.922C158.186 224.719 158.253 225.803 158.297 227.176C158.341 228.548 158.363 230.164 158.363 232.023C158.363 233.839 158.363 235.764 158.363 237.801C159.691 237.712 160.82 237.69 161.75 237.734C162.68 237.734 163.167 237.779 163.211 237.867ZM182.867 237.07C183.133 237.38 183.376 237.712 183.598 238.066C183.819 238.376 184.018 238.819 184.195 239.395C184.372 239.926 184.505 240.634 184.594 241.52C184.727 242.405 184.793 243.556 184.793 244.973C184.793 247.23 184.727 249.51 184.594 251.812C184.505 254.07 184.417 256.062 184.328 257.789C184.284 259.339 184.24 260.777 184.195 262.105C184.151 263.434 184.107 264.607 184.062 265.625C184.018 266.599 183.952 267.374 183.863 267.949C183.819 268.525 183.775 268.835 183.73 268.879C183.553 269.012 183.266 268.967 182.867 268.746C182.513 268.48 182.115 268.148 181.672 267.75C181.273 267.352 180.897 266.931 180.543 266.488C180.189 266.046 179.967 265.691 179.879 265.426C179.879 265.204 179.812 264.562 179.68 263.5C178.617 264.12 177.444 264.562 176.16 264.828C174.876 265.049 173.592 265.138 172.309 265.094C171.069 265.005 169.918 264.762 168.855 264.363C167.793 263.965 166.996 263.434 166.465 262.77C166.243 262.504 166.044 262.105 165.867 261.574C165.734 261.043 165.602 260.445 165.469 259.781C165.38 259.073 165.292 258.342 165.203 257.59C165.115 256.793 165.048 256.062 165.004 255.398C164.915 253.672 165.137 252.189 165.668 250.949C166.199 249.665 167.173 248.714 168.59 248.094C169.21 247.828 170.029 247.695 171.047 247.695C172.109 247.651 173.15 247.695 174.168 247.828C175.23 247.917 176.182 248.049 177.023 248.227C177.865 248.359 178.396 248.47 178.617 248.559C178.44 246.301 178.307 244.353 178.219 242.715C178.13 241.033 177.953 239.948 177.688 239.461C177.466 239.151 177.201 238.841 176.891 238.531C176.625 238.31 176.271 238.066 175.828 237.801C175.385 237.535 174.854 237.336 174.234 237.203C173.747 237.115 173.305 237.314 172.906 237.801C172.552 238.243 172.22 239.04 171.91 240.191C171.645 241.298 171.49 243.003 171.445 245.305C169.896 245.349 168.701 245.349 167.859 245.305C167.062 245.216 166.465 245.128 166.066 245.039C165.579 244.951 165.292 244.84 165.203 244.707C165.115 244.53 165.159 243.888 165.336 242.781C165.513 241.63 165.757 240.391 166.066 239.062C166.421 237.734 166.819 236.473 167.262 235.277C167.749 234.082 168.258 233.329 168.789 233.02C169.852 232.4 171.113 232.178 172.574 232.355C174.079 232.533 175.54 232.909 176.957 233.484C178.374 234.06 179.635 234.702 180.742 235.41C181.849 236.118 182.557 236.672 182.867 237.07ZM178.75 256.461C178.75 256.24 178.772 255.952 178.816 255.598C178.861 255.199 178.883 254.801 178.883 254.402C178.883 254.004 178.861 253.628 178.816 253.273C178.816 252.919 178.772 252.654 178.684 252.477C178.551 252.211 178.152 251.99 177.488 251.812C176.868 251.635 176.16 251.525 175.363 251.48C174.566 251.392 173.814 251.37 173.105 251.414C172.397 251.414 171.91 251.503 171.645 251.68C171.29 251.901 171.025 252.211 170.848 252.609C170.715 253.008 170.626 253.628 170.582 254.469C170.582 254.867 170.604 255.288 170.648 255.73C170.693 256.173 170.737 256.616 170.781 257.059C170.87 257.457 170.958 257.811 171.047 258.121C171.18 258.431 171.312 258.63 171.445 258.719C171.755 258.94 172.286 259.139 173.039 259.316C173.836 259.449 174.633 259.493 175.43 259.449C176.227 259.361 176.957 259.095 177.621 258.652C178.285 258.21 178.661 257.479 178.75 256.461ZM203.785 236.473C203.874 236.605 204.007 237.225 204.184 238.332C204.361 239.439 204.538 240.811 204.715 242.449C204.936 244.087 205.135 245.858 205.312 247.762C205.534 249.665 205.733 251.48 205.91 253.207C206.132 254.934 206.309 256.483 206.441 257.855C206.574 259.228 206.685 260.158 206.773 260.645C206.906 261.441 207.061 262.327 207.238 263.301C207.415 264.23 207.57 265.138 207.703 266.023C207.836 266.865 207.924 267.595 207.969 268.215C208.057 268.835 208.035 269.211 207.902 269.344C207.814 269.477 207.46 269.521 206.84 269.477C206.22 269.388 205.534 269.255 204.781 269.078C204.073 268.857 203.387 268.613 202.723 268.348C202.103 268.038 201.704 267.75 201.527 267.484C201.35 267.263 201.173 266.931 200.996 266.488C200.863 266.046 200.686 265.271 200.465 264.164C199.978 264.828 199.447 265.536 198.871 266.289C198.34 266.997 197.809 267.661 197.277 268.281C196.746 268.857 196.259 269.322 195.816 269.676C195.374 270.03 195.042 270.207 194.82 270.207C194.466 270.207 193.935 269.853 193.227 269.145C192.518 268.392 191.81 267.551 191.102 266.621C190.393 265.691 189.751 264.806 189.176 263.965C188.6 263.124 188.29 262.57 188.246 262.305C188.158 262.039 188.113 261.309 188.113 260.113C188.158 258.918 188.202 257.59 188.246 256.129C188.335 254.624 188.423 253.141 188.512 251.68C188.6 250.174 188.689 248.979 188.777 248.094C188.866 247.208 188.954 246.234 189.043 245.172C189.176 244.065 189.309 243.047 189.441 242.117C189.574 241.143 189.685 240.302 189.773 239.594C189.906 238.885 190.017 238.465 190.105 238.332C190.194 238.199 190.438 238.133 190.836 238.133C191.279 238.089 191.721 238.111 192.164 238.199C192.651 238.243 193.094 238.354 193.492 238.531C193.891 238.664 194.156 238.841 194.289 239.062C194.378 239.24 194.422 239.815 194.422 240.789C194.466 241.719 194.488 242.87 194.488 244.242C194.488 245.57 194.488 247.031 194.488 248.625C194.488 250.174 194.466 251.635 194.422 253.008C194.422 254.336 194.4 255.487 194.355 256.461C194.355 257.391 194.355 257.944 194.355 258.121C194.355 258.475 194.555 259.161 194.953 260.18C195.396 261.198 195.839 262.172 196.281 263.102L199.734 258.984C199.69 258.188 199.646 257.169 199.602 255.93C199.602 254.69 199.579 253.384 199.535 252.012C199.491 250.639 199.447 249.245 199.402 247.828C199.358 246.411 199.336 245.128 199.336 243.977C199.336 242.826 199.336 241.874 199.336 241.121C199.336 240.368 199.358 239.926 199.402 239.793C199.535 239.527 199.801 239.173 200.199 238.73C200.598 238.288 201.04 237.867 201.527 237.469C202.014 237.07 202.457 236.76 202.855 236.539C203.298 236.318 203.608 236.296 203.785 236.473ZM225.035 235.809C225.389 236.03 225.721 236.473 226.031 237.137C226.385 237.757 226.695 238.487 226.961 239.328C227.271 240.125 227.514 240.988 227.691 241.918C227.913 242.848 228.09 243.711 228.223 244.508C228.4 245.305 228.51 245.991 228.555 246.566C228.599 247.098 228.599 247.43 228.555 247.562C228.466 247.74 228.201 247.917 227.758 248.094C227.359 248.271 226.762 248.47 225.965 248.691C225.168 248.913 224.061 249.156 222.645 249.422C222.556 246.987 222.379 245.15 222.113 243.91C221.848 242.626 221.56 241.719 221.25 241.188C220.896 240.568 220.52 240.258 220.121 240.258C219.723 240.435 219.368 240.656 219.059 240.922C218.749 241.143 218.483 241.387 218.262 241.652C217.996 241.962 217.753 242.294 217.531 242.648C217.443 242.781 217.354 243.091 217.266 243.578C217.177 244.065 217.089 244.796 217 245.77C217 246.079 216.978 246.721 216.934 247.695C216.934 248.669 216.911 249.798 216.867 251.082C216.867 252.366 216.845 253.716 216.801 255.133C216.801 256.549 216.779 257.878 216.734 259.117C216.734 260.312 216.712 261.331 216.668 262.172C216.668 263.013 216.646 263.5 216.602 263.633C216.513 263.854 216.292 264.164 215.938 264.562C215.583 264.961 215.185 265.337 214.742 265.691C214.299 266.001 213.879 266.267 213.48 266.488C213.082 266.665 212.816 266.643 212.684 266.422C212.551 266.289 212.418 265.714 212.285 264.695C212.152 263.677 211.997 262.438 211.82 260.977C211.688 259.471 211.533 257.833 211.355 256.062C211.178 254.292 211.023 252.587 210.891 250.949C210.758 249.311 210.647 247.85 210.559 246.566C210.47 245.238 210.404 244.286 210.359 243.711C210.315 242.87 210.271 241.94 210.227 240.922C210.182 239.904 210.138 238.952 210.094 238.066C210.094 237.137 210.094 236.34 210.094 235.676C210.138 234.967 210.227 234.547 210.359 234.414C210.448 234.281 210.736 234.259 211.223 234.348C211.754 234.392 212.307 234.525 212.883 234.746C213.503 234.923 214.078 235.167 214.609 235.477C215.141 235.786 215.495 236.074 215.672 236.34C215.805 236.561 215.938 236.893 216.07 237.336C216.911 236.893 217.708 236.495 218.461 236.141C219.258 235.742 220.01 235.454 220.719 235.277C221.471 235.1 222.202 235.056 222.91 235.145C223.618 235.189 224.327 235.41 225.035 235.809ZM248.211 237.07C248.477 237.38 248.72 237.712 248.941 238.066C249.163 238.376 249.362 238.819 249.539 239.395C249.716 239.926 249.849 240.634 249.938 241.52C250.07 242.405 250.137 243.556 250.137 244.973C250.137 247.23 250.07 249.51 249.938 251.812C249.849 254.07 249.76 256.062 249.672 257.789C249.628 259.339 249.583 260.777 249.539 262.105C249.495 263.434 249.451 264.607 249.406 265.625C249.362 266.599 249.296 267.374 249.207 267.949C249.163 268.525 249.118 268.835 249.074 268.879C248.897 269.012 248.609 268.967 248.211 268.746C247.857 268.48 247.458 268.148 247.016 267.75C246.617 267.352 246.241 266.931 245.887 266.488C245.533 266.046 245.311 265.691 245.223 265.426C245.223 265.204 245.156 264.562 245.023 263.5C243.961 264.12 242.788 264.562 241.504 264.828C240.22 265.049 238.936 265.138 237.652 265.094C236.413 265.005 235.262 264.762 234.199 264.363C233.137 263.965 232.34 263.434 231.809 262.77C231.587 262.504 231.388 262.105 231.211 261.574C231.078 261.043 230.945 260.445 230.812 259.781C230.724 259.073 230.635 258.342 230.547 257.59C230.458 256.793 230.392 256.062 230.348 255.398C230.259 253.672 230.48 252.189 231.012 250.949C231.543 249.665 232.517 248.714 233.934 248.094C234.553 247.828 235.372 247.695 236.391 247.695C237.453 247.651 238.493 247.695 239.512 247.828C240.574 247.917 241.526 248.049 242.367 248.227C243.208 248.359 243.74 248.47 243.961 248.559C243.784 246.301 243.651 244.353 243.562 242.715C243.474 241.033 243.297 239.948 243.031 239.461C242.81 239.151 242.544 238.841 242.234 238.531C241.969 238.31 241.615 238.066 241.172 237.801C240.729 237.535 240.198 237.336 239.578 237.203C239.091 237.115 238.648 237.314 238.25 237.801C237.896 238.243 237.564 239.04 237.254 240.191C236.988 241.298 236.833 243.003 236.789 245.305C235.24 245.349 234.044 245.349 233.203 245.305C232.406 245.216 231.809 245.128 231.41 245.039C230.923 244.951 230.635 244.84 230.547 244.707C230.458 244.53 230.503 243.888 230.68 242.781C230.857 241.63 231.1 240.391 231.41 239.062C231.764 237.734 232.163 236.473 232.605 235.277C233.092 234.082 233.602 233.329 234.133 233.02C235.195 232.4 236.457 232.178 237.918 232.355C239.423 232.533 240.884 232.909 242.301 233.484C243.717 234.06 244.979 234.702 246.086 235.41C247.193 236.118 247.901 236.672 248.211 237.07ZM244.094 256.461C244.094 256.24 244.116 255.952 244.16 255.598C244.204 255.199 244.227 254.801 244.227 254.402C244.227 254.004 244.204 253.628 244.16 253.273C244.16 252.919 244.116 252.654 244.027 252.477C243.895 252.211 243.496 251.99 242.832 251.812C242.212 251.635 241.504 251.525 240.707 251.48C239.91 251.392 239.158 251.37 238.449 251.414C237.741 251.414 237.254 251.503 236.988 251.68C236.634 251.901 236.368 252.211 236.191 252.609C236.059 253.008 235.97 253.628 235.926 254.469C235.926 254.867 235.948 255.288 235.992 255.73C236.036 256.173 236.081 256.616 236.125 257.059C236.214 257.457 236.302 257.811 236.391 258.121C236.523 258.431 236.656 258.63 236.789 258.719C237.099 258.94 237.63 259.139 238.383 259.316C239.18 259.449 239.977 259.493 240.773 259.449C241.57 259.361 242.301 259.095 242.965 258.652C243.629 258.21 244.005 257.479 244.094 256.461ZM273.246 244.176C273.246 244.884 273.158 245.902 272.98 247.23C272.848 248.559 272.648 250.02 272.383 251.613C272.117 253.163 271.829 254.779 271.52 256.461C271.254 258.099 270.966 259.604 270.656 260.977C270.391 262.349 270.147 263.5 269.926 264.43C269.749 265.359 269.638 265.868 269.594 265.957C269.505 266.09 269.262 266.178 268.863 266.223C268.509 266.223 268.089 266.178 267.602 266.09C267.159 266.001 266.738 265.868 266.34 265.691C265.986 265.514 265.764 265.293 265.676 265.027C265.632 264.85 265.609 264.23 265.609 263.168C265.654 262.105 265.698 260.844 265.742 259.383C265.831 257.878 265.919 256.284 266.008 254.602C266.096 252.875 266.185 251.281 266.273 249.82C266.406 248.315 266.495 247.031 266.539 245.969C266.628 244.906 266.672 244.264 266.672 244.043C266.672 243.246 266.583 242.493 266.406 241.785C266.273 241.033 266.096 240.391 265.875 239.859C265.654 239.328 265.388 238.93 265.078 238.664C264.812 238.354 264.569 238.243 264.348 238.332C263.772 238.421 263.285 238.576 262.887 238.797C262.488 238.974 262.156 239.173 261.891 239.395C261.581 239.66 261.337 239.97 261.16 240.324C261.116 240.413 261.027 240.678 260.895 241.121C260.806 241.564 260.762 242.073 260.762 242.648C260.762 242.826 260.762 243.467 260.762 244.574C260.762 245.637 260.74 246.921 260.695 248.426C260.695 249.931 260.673 251.569 260.629 253.34C260.629 255.066 260.607 256.682 260.562 258.188C260.562 259.648 260.54 260.91 260.496 261.973C260.452 263.035 260.408 263.633 260.363 263.766C260.275 264.031 260.053 264.408 259.699 264.895C259.345 265.337 258.947 265.758 258.504 266.156C258.061 266.555 257.641 266.865 257.242 267.086C256.844 267.263 256.578 267.219 256.445 266.953C256.312 266.82 256.18 266.178 256.047 265.027C255.914 263.832 255.759 262.393 255.582 260.711C255.449 258.984 255.294 257.125 255.117 255.133C254.94 253.096 254.785 251.148 254.652 249.289C254.52 247.43 254.409 245.747 254.32 244.242C254.232 242.737 254.165 241.652 254.121 240.988C254.077 240.059 254.033 239.018 253.988 237.867C253.944 236.672 253.9 235.565 253.855 234.547C253.855 233.484 253.855 232.577 253.855 231.824C253.9 231.027 253.988 230.54 254.121 230.363C254.21 230.186 254.497 230.142 254.984 230.23C255.516 230.319 256.069 230.496 256.645 230.762C257.264 230.983 257.84 231.271 258.371 231.625C258.902 231.935 259.257 232.245 259.434 232.555C259.522 232.82 259.633 233.13 259.766 233.484C259.898 233.794 260.009 234.326 260.098 235.078C260.85 234.635 261.669 234.237 262.555 233.883C263.44 233.484 264.303 233.197 265.145 233.02C266.03 232.798 266.871 232.732 267.668 232.82C268.465 232.865 269.173 233.086 269.793 233.484C270.191 233.794 270.59 234.326 270.988 235.078C271.431 235.831 271.807 236.716 272.117 237.734C272.471 238.753 272.737 239.837 272.914 240.988C273.135 242.095 273.246 243.158 273.246 244.176ZM291.375 237.867C291.419 238 291.419 238.376 291.375 238.996C291.331 239.572 291.242 240.236 291.109 240.988C291.021 241.697 290.91 242.361 290.777 242.98C290.645 243.556 290.534 243.91 290.445 244.043C290.003 244.087 289.56 244.109 289.117 244.109C288.674 244.065 288.254 244.043 287.855 244.043H286.461C286.417 246.965 286.35 249.865 286.262 252.742C286.173 255.62 286.062 258.21 285.93 260.512C285.797 262.77 285.642 264.607 285.465 266.023C285.332 267.44 285.199 268.171 285.066 268.215C284.757 268.259 284.402 268.126 284.004 267.816C283.605 267.507 283.207 267.13 282.809 266.688C282.454 266.201 282.122 265.714 281.812 265.227C281.547 264.695 281.392 264.23 281.348 263.832C281.126 261.132 280.927 258.564 280.75 256.129C280.573 253.65 280.44 251.458 280.352 249.555C280.174 247.341 280.064 245.283 280.02 243.379C279.533 243.335 279.046 243.268 278.559 243.18C278.116 243.091 277.651 243.003 277.164 242.914C276.721 242.826 276.257 242.737 275.77 242.648C275.681 242.56 275.57 242.361 275.438 242.051C275.305 241.697 275.172 241.32 275.039 240.922C274.951 240.523 274.862 240.147 274.773 239.793C274.685 239.395 274.641 239.107 274.641 238.93C274.641 238.797 275.128 238.664 276.102 238.531C277.12 238.398 278.359 238.288 279.82 238.199C279.732 235.853 279.665 233.816 279.621 232.09C279.621 230.319 279.688 229.124 279.82 228.504C279.953 227.663 280.307 226.866 280.883 226.113C281.503 225.316 282.145 224.63 282.809 224.055C283.517 223.479 284.159 223.059 284.734 222.793C285.354 222.483 285.753 222.395 285.93 222.527C286.062 222.616 286.173 223.081 286.262 223.922C286.35 224.719 286.417 225.803 286.461 227.176C286.505 228.548 286.527 230.164 286.527 232.023C286.527 233.839 286.527 235.764 286.527 237.801C287.855 237.712 288.984 237.69 289.914 237.734C290.844 237.734 291.331 237.779 291.375 237.867Z" fill="black"/>
<path d="M140.031 151.65C140.225 151.973 140.321 152.714 140.321 153.874C140.386 155.034 140.354 156.291 140.225 157.645C140.096 158.998 139.902 160.319 139.645 161.608C139.451 162.833 139.226 163.639 138.968 164.025C138.774 164.348 137.582 164.477 135.391 164.412C133.264 164.283 130.202 163.961 126.206 163.445C126.206 165.959 126.174 169.182 126.109 173.113C126.045 177.045 125.916 181.267 125.723 185.778C125.594 190.226 125.433 194.705 125.239 199.217C125.11 203.729 124.949 207.821 124.756 211.495C124.562 215.169 124.369 218.166 124.176 220.486C123.982 222.807 123.821 224.031 123.692 224.16C123.435 224.354 122.983 224.257 122.339 223.87C121.759 223.548 121.146 223.064 120.502 222.42C119.857 221.775 119.245 221.131 118.665 220.486C118.149 219.777 117.795 219.165 117.602 218.649C117.537 218.392 117.408 217.135 117.215 214.879C117.086 212.623 116.925 209.787 116.731 206.371C116.538 202.955 116.312 199.152 116.055 194.963C115.797 190.773 115.539 186.616 115.281 182.491C115.023 178.366 114.733 174.499 114.411 170.89C114.153 167.28 113.928 164.283 113.734 161.898C109.352 161.447 106.193 160.996 104.26 160.545C102.326 160.094 101.23 159.739 100.973 159.481C100.715 159.224 100.457 158.74 100.199 158.031C99.877 157.258 99.6191 156.484 99.4258 155.711C99.2324 154.938 99.1357 154.229 99.1357 153.584C99.0713 152.875 99.1357 152.424 99.3291 152.23C99.458 152.102 100.554 151.973 102.616 151.844C104.614 151.715 107.096 151.586 110.061 151.457C113.025 151.328 116.216 151.231 119.632 151.167C123.112 151.103 126.335 151.07 129.3 151.07C132.265 151.07 134.746 151.135 136.744 151.264C138.807 151.328 139.902 151.457 140.031 151.65ZM164.878 172.146C165.265 172.598 165.619 173.081 165.941 173.597C166.264 174.048 166.554 174.692 166.812 175.53C167.069 176.304 167.263 177.335 167.392 178.624C167.585 179.913 167.682 181.589 167.682 183.651C167.682 186.938 167.585 190.258 167.392 193.609C167.263 196.896 167.134 199.797 167.005 202.311C166.94 204.566 166.876 206.661 166.812 208.595C166.747 210.528 166.683 212.236 166.618 213.719C166.554 215.137 166.457 216.265 166.328 217.103C166.264 217.94 166.199 218.392 166.135 218.456C165.877 218.649 165.458 218.585 164.878 218.263C164.362 217.876 163.782 217.393 163.138 216.812C162.558 216.232 162.01 215.62 161.494 214.976C160.979 214.331 160.656 213.815 160.527 213.429C160.527 213.106 160.431 212.172 160.237 210.625C158.69 211.527 156.982 212.172 155.113 212.559C153.244 212.881 151.375 213.01 149.506 212.945C147.701 212.816 146.025 212.462 144.479 211.882C142.932 211.302 141.771 210.528 140.998 209.562C140.676 209.175 140.386 208.595 140.128 207.821C139.935 207.048 139.741 206.178 139.548 205.211C139.419 204.18 139.29 203.116 139.161 202.021C139.032 200.86 138.936 199.797 138.871 198.83C138.742 196.316 139.064 194.157 139.838 192.353C140.611 190.483 142.029 189.098 144.092 188.195C144.994 187.809 146.187 187.615 147.669 187.615C149.216 187.551 150.73 187.615 152.213 187.809C153.76 187.938 155.146 188.131 156.37 188.389C157.595 188.582 158.368 188.743 158.69 188.872C158.433 185.585 158.239 182.749 158.11 180.364C157.981 177.915 157.724 176.336 157.337 175.627C157.015 175.176 156.628 174.725 156.177 174.273C155.79 173.951 155.274 173.597 154.63 173.21C153.985 172.823 153.212 172.533 152.31 172.34C151.601 172.211 150.956 172.501 150.376 173.21C149.86 173.854 149.377 175.015 148.926 176.69C148.539 178.302 148.313 180.783 148.249 184.135C145.993 184.199 144.253 184.199 143.028 184.135C141.868 184.006 140.998 183.877 140.418 183.748C139.709 183.619 139.29 183.458 139.161 183.265C139.032 183.007 139.097 182.072 139.354 180.461C139.612 178.785 139.967 176.98 140.418 175.047C140.934 173.113 141.514 171.276 142.158 169.536C142.867 167.796 143.608 166.7 144.382 166.249C145.929 165.347 147.766 165.024 149.893 165.282C152.084 165.54 154.211 166.088 156.273 166.926C158.336 167.764 160.173 168.698 161.784 169.729C163.396 170.761 164.427 171.566 164.878 172.146ZM158.884 200.377C158.884 200.055 158.916 199.636 158.98 199.12C159.045 198.54 159.077 197.96 159.077 197.38C159.077 196.8 159.045 196.252 158.98 195.736C158.98 195.221 158.916 194.834 158.787 194.576C158.594 194.189 158.014 193.867 157.047 193.609C156.145 193.352 155.113 193.19 153.953 193.126C152.793 192.997 151.697 192.965 150.666 193.029C149.635 193.029 148.926 193.158 148.539 193.416C148.023 193.738 147.637 194.189 147.379 194.77C147.186 195.35 147.057 196.252 146.992 197.477C146.992 198.057 147.024 198.669 147.089 199.313C147.153 199.958 147.218 200.603 147.282 201.247C147.411 201.827 147.54 202.343 147.669 202.794C147.862 203.245 148.056 203.535 148.249 203.664C148.7 203.986 149.474 204.276 150.569 204.534C151.729 204.728 152.89 204.792 154.05 204.728C155.21 204.599 156.273 204.212 157.24 203.567C158.207 202.923 158.755 201.859 158.884 200.377ZM197.169 171.856C197.813 172.243 198.458 172.952 199.103 173.983C199.812 174.95 200.424 176.11 200.939 177.464C201.52 178.817 201.971 180.268 202.293 181.814C202.615 183.297 202.776 184.715 202.776 186.068C202.776 187.035 202.647 188.389 202.39 190.129C202.196 191.805 201.906 193.674 201.52 195.736C201.133 197.734 200.714 199.829 200.263 202.021C199.812 204.147 199.36 206.113 198.909 207.918C198.522 209.723 198.168 211.27 197.846 212.559C197.523 213.783 197.298 214.524 197.169 214.782C196.847 215.556 196.557 216.232 196.299 216.812C196.105 217.328 195.848 217.715 195.525 217.973C194.816 218.488 193.914 218.875 192.818 219.133C191.723 219.326 190.595 219.455 189.435 219.52C188.274 219.584 187.146 219.584 186.051 219.52C185.02 219.391 184.214 219.229 183.634 219.036C183.376 218.972 183.086 218.907 182.764 218.843C182.506 218.714 182.216 218.585 181.894 218.456C181.249 219.552 180.508 220.551 179.67 221.453C178.832 222.291 178.059 222.646 177.35 222.517C177.092 222.452 176.802 221.389 176.479 219.326C176.222 217.264 175.932 214.557 175.609 211.205C175.287 207.789 174.965 203.922 174.643 199.604C174.32 195.285 174.03 190.87 173.772 186.358C173.515 181.782 173.289 177.303 173.096 172.92C172.902 168.537 172.741 164.638 172.612 161.222C172.548 157.741 172.548 154.905 172.612 152.714C172.677 150.458 172.838 149.233 173.096 149.04C173.354 148.847 173.934 149.008 174.836 149.523C175.803 149.975 176.834 150.684 177.93 151.65C179.025 152.553 180.024 153.648 180.927 154.938C181.894 156.227 182.538 157.548 182.86 158.901C183.054 159.933 183.183 161.705 183.247 164.219C183.376 166.732 183.44 169.697 183.44 173.113C186.276 172.018 188.887 171.309 191.271 170.986C193.721 170.664 195.687 170.954 197.169 171.856ZM193.012 186.068C193.012 185.037 192.851 184.038 192.528 183.071C192.206 182.04 191.819 181.17 191.368 180.461C190.917 179.688 190.434 179.107 189.918 178.721C189.402 178.334 188.951 178.205 188.564 178.334C187.855 178.463 187.179 178.656 186.534 178.914C185.89 179.107 185.342 179.301 184.891 179.494C184.311 179.752 183.827 179.978 183.44 180.171C183.376 183.974 183.279 187.841 183.15 191.772C183.086 195.704 183.054 199.378 183.054 202.794C183.054 204.47 183.086 205.952 183.15 207.241C183.215 208.466 183.247 209.239 183.247 209.562C183.44 211.108 183.859 212.204 184.504 212.849C184.697 212.978 184.987 213.171 185.374 213.429C185.825 213.622 186.276 213.815 186.728 214.009C187.243 214.138 187.727 214.234 188.178 214.299C188.629 214.299 189.016 214.17 189.338 213.912C189.402 213.848 189.531 213.139 189.725 211.785C189.982 210.367 190.24 208.659 190.498 206.661C190.756 204.663 191.014 202.504 191.271 200.184C191.594 197.799 191.884 195.607 192.142 193.609C192.399 191.547 192.593 189.807 192.722 188.389C192.915 186.971 193.012 186.197 193.012 186.068ZM215.538 222.42C215.087 222.549 214.571 222.388 213.991 221.937C213.411 221.485 212.831 220.938 212.251 220.293C211.735 219.584 211.284 218.843 210.897 218.069C210.511 217.296 210.253 216.651 210.124 216.136C209.673 210.464 209.286 205.404 208.964 200.957C208.706 196.445 208.48 192.449 208.287 188.969C208.094 185.488 207.933 182.491 207.804 179.978C207.739 177.399 207.707 175.208 207.707 173.403C207.643 169.214 207.707 166.313 207.9 164.702C208.094 163.542 208.609 162.382 209.447 161.222C210.35 160.062 211.284 159.062 212.251 158.225C213.282 157.387 214.217 156.742 215.055 156.291C215.957 155.84 216.537 155.711 216.795 155.904C217.053 156.098 217.246 157.193 217.375 159.191C217.504 161.125 217.601 163.671 217.665 166.829C217.729 169.987 217.729 173.532 217.665 177.464C217.665 181.396 217.601 185.424 217.472 189.549C217.407 193.674 217.311 197.702 217.182 201.634C217.053 205.565 216.892 209.078 216.698 212.172C216.505 215.201 216.312 217.65 216.118 219.52C215.925 221.389 215.731 222.355 215.538 222.42ZM232.167 195.06C233.198 194.673 234.358 194.254 235.647 193.803C237.001 193.287 238.29 192.836 239.515 192.449C240.739 191.998 241.835 191.611 242.802 191.289C243.769 190.967 244.478 190.709 244.929 190.516C244.864 189.807 244.768 189.001 244.639 188.099C244.574 187.132 244.478 186.229 244.349 185.392C244.22 184.489 244.059 183.716 243.865 183.071C243.672 182.427 243.479 182.04 243.285 181.911C242.77 181.718 241.899 181.557 240.675 181.428C239.515 181.234 238.29 181.267 237.001 181.524C235.776 181.782 234.648 182.266 233.617 182.975C232.586 183.684 232.006 184.812 231.877 186.358C231.748 187.39 231.716 188.679 231.78 190.226C231.845 191.772 231.974 193.384 232.167 195.06ZM253.146 196.606C253.082 196.735 252.309 196.993 250.826 197.38C249.344 197.767 247.571 198.186 245.509 198.637C243.446 199.023 241.255 199.442 238.935 199.894C236.614 200.28 234.616 200.603 232.94 200.86C233.263 203.438 233.649 205.759 234.101 207.821C234.552 209.819 234.938 211.076 235.261 211.592C235.583 212.043 236.002 212.462 236.518 212.849C236.969 213.171 237.517 213.493 238.161 213.815C238.87 214.073 239.708 214.267 240.675 214.396C241.384 214.589 242.061 214.331 242.705 213.622C243.221 212.978 243.672 211.85 244.059 210.238C244.51 208.627 244.735 206.081 244.735 202.601C246.733 202.278 248.28 202.085 249.376 202.021C250.536 201.956 251.374 201.956 251.89 202.021C252.534 202.085 252.921 202.182 253.05 202.311C253.114 202.504 253.114 202.987 253.05 203.761C252.985 204.534 252.824 205.501 252.566 206.661C252.373 207.757 252.115 208.981 251.793 210.335C251.535 211.624 251.213 212.881 250.826 214.105C250.439 215.266 250.021 216.329 249.569 217.296C249.118 218.198 248.635 218.843 248.119 219.229C246.572 220.39 244.639 220.97 242.318 220.97C239.998 220.905 237.71 220.583 235.454 220.003C233.198 219.358 231.168 218.617 229.363 217.779C227.559 216.877 226.431 216.136 225.979 215.556C225.657 215.169 225.367 214.202 225.109 212.655C224.852 211.044 224.626 209.11 224.433 206.854C224.304 204.599 224.207 202.117 224.143 199.41C224.078 196.703 224.11 194.061 224.239 191.482C224.433 188.904 224.69 186.52 225.013 184.328C225.399 182.137 225.915 180.364 226.56 179.011C227.526 177.077 229.105 175.498 231.297 174.273C233.488 173.049 235.809 172.211 238.258 171.76C240.707 171.309 243.027 171.244 245.219 171.566C247.475 171.889 249.15 172.598 250.246 173.693C250.891 174.338 251.471 175.627 251.986 177.561C252.502 179.43 252.824 181.718 252.953 184.425C252.953 184.683 252.985 185.424 253.05 186.648C253.114 187.873 253.146 189.194 253.146 190.612C253.211 191.966 253.243 193.255 253.243 194.479C253.243 195.704 253.211 196.413 253.146 196.606Z" fill="black"/>
<path d="M73.7529 136.147C73.5745 135.701 73.4854 134.096 73.4854 131.331C73.4854 128.566 73.4854 125.088 73.4854 120.896C73.5745 116.703 73.6637 112.021 73.7529 106.848C73.9313 101.585 74.0651 96.2783 74.1543 90.9268C74.3327 85.486 74.5111 80.2236 74.6895 75.1396C74.8678 69.9665 75.0016 65.373 75.0908 61.3594C75.2692 57.3457 75.403 54.0902 75.4922 51.5928C75.5814 49.0062 75.6706 47.6237 75.7598 47.4453C75.849 47.0885 76.2503 46.1966 76.9639 44.7695C77.6774 43.3424 78.4801 41.8708 79.3721 40.3545C80.3532 38.749 81.3343 37.3665 82.3154 36.207C83.2965 34.9583 84.1439 34.3786 84.8574 34.4678C85.125 34.557 85.348 36.3408 85.5264 39.8193C85.7939 43.2087 86.0169 47.5791 86.1953 52.9307C86.4629 58.2822 86.6413 64.2135 86.7305 70.7246C86.9089 77.1465 87.0426 83.4346 87.1318 89.5889C87.3102 95.654 87.444 101.184 87.5332 106.179C87.6224 111.084 87.7116 114.697 87.8008 117.016C90.6549 117.283 93.5091 117.506 96.3633 117.685C99.3066 117.863 101.938 118.086 104.257 118.354C106.576 118.532 108.449 118.71 109.876 118.889C111.392 119.067 112.195 119.201 112.284 119.29C112.552 119.647 112.909 120.494 113.354 121.832C113.89 123.081 114.38 124.463 114.826 125.979C115.272 127.407 115.584 128.744 115.763 129.993C116.03 131.242 115.986 132 115.629 132.268C105.372 134.141 97.4336 135.389 91.8145 136.014C86.1953 136.638 82.0479 136.95 79.3721 136.95C76.2503 136.95 74.3773 136.683 73.7529 136.147ZM146.4 57.0781C146.668 57.2565 146.891 58.416 147.069 60.5566C147.248 62.6973 147.382 65.5068 147.471 68.9854C147.649 72.3747 147.738 76.2546 147.738 80.625C147.738 84.9954 147.738 89.4997 147.738 94.1377C147.738 98.7757 147.694 103.369 147.604 107.918C147.604 112.378 147.515 116.48 147.337 120.227C147.248 123.883 147.114 127.005 146.936 129.592C146.846 132.178 146.713 133.828 146.534 134.542C146.356 135.077 145.821 135.88 144.929 136.95C144.126 138.11 143.145 139.269 141.985 140.429C140.826 141.588 139.622 142.614 138.373 143.506C137.214 144.487 136.232 145.111 135.43 145.379C133.824 145.914 132.04 145.825 130.078 145.111C128.116 144.398 126.243 143.461 124.459 142.302C122.764 141.142 121.248 139.894 119.91 138.556C118.661 137.307 117.903 136.415 117.636 135.88C117.368 135.345 117.101 134.542 116.833 133.472C116.655 132.491 116.521 131.509 116.432 130.528C116.342 129.458 116.342 128.566 116.432 127.853C116.61 127.05 116.922 126.648 117.368 126.648C117.725 126.648 118.661 127.05 120.178 127.853C121.783 128.655 123.478 129.503 125.262 130.395C127.046 131.197 128.696 131.866 130.212 132.401C131.728 132.937 132.665 132.892 133.021 132.268C133.378 131.554 133.735 129.636 134.092 126.515C134.449 123.304 134.805 119.424 135.162 114.875C132.04 115.945 129.186 116.659 126.6 117.016C124.102 117.283 122.006 116.837 120.312 115.678C119.509 115.143 118.661 114.206 117.77 112.868C116.967 111.53 116.209 110.014 115.495 108.319C114.871 106.535 114.336 104.662 113.89 102.7C113.444 100.649 113.221 98.7311 113.221 96.9473C113.221 95.6986 113.354 93.9147 113.622 91.5957C113.979 89.2767 114.425 86.7347 114.96 83.9697C115.495 81.2048 116.03 78.3506 116.565 75.4072C117.19 72.4639 117.77 69.7881 118.305 67.3799C118.929 64.9717 119.42 62.9648 119.776 61.3594C120.222 59.6647 120.49 58.7282 120.579 58.5498C120.757 58.2822 121.203 58.1484 121.917 58.1484C122.631 58.0592 123.389 58.1038 124.191 58.2822C124.994 58.3714 125.752 58.5944 126.466 58.9512C127.179 59.3079 127.625 59.7093 127.804 60.1553C127.893 60.512 127.893 61.627 127.804 63.5C127.804 65.373 127.67 67.6029 127.402 70.1895C127.224 72.776 127.001 75.5856 126.733 78.6182C126.555 81.5615 126.332 84.3711 126.064 87.0469C125.886 89.6335 125.708 91.8633 125.529 93.7363C125.351 95.6094 125.262 96.7243 125.262 97.0811C125.262 98.5081 125.396 99.8906 125.663 101.229C126.02 102.477 126.421 103.592 126.867 104.573C127.402 105.465 127.938 106.179 128.473 106.714C129.008 107.249 129.498 107.427 129.944 107.249C131.461 106.981 132.843 106.625 134.092 106.179C134.716 105.911 135.296 105.644 135.831 105.376C136.099 101.006 136.366 96.5459 136.634 91.9971C136.901 87.359 137.124 83.1224 137.303 79.2871C137.481 75.4518 137.615 72.1963 137.704 69.5205C137.882 66.8447 137.972 65.1501 137.972 64.4365C137.972 63.6338 138.328 62.7419 139.042 61.7607C139.756 60.6904 140.558 59.7539 141.45 58.9512C142.342 58.1484 143.234 57.5687 144.126 57.2119C145.107 56.766 145.865 56.7214 146.4 57.0781ZM195.1 75.9424C195.1 77.3695 194.921 79.4209 194.564 82.0967C194.297 84.7725 193.896 87.7158 193.36 90.9268C192.825 94.0485 192.245 97.304 191.621 100.693C191.086 103.993 190.506 107.026 189.882 109.791C189.347 112.556 188.856 114.875 188.41 116.748C188.053 118.621 187.83 119.647 187.741 119.825C187.563 120.093 187.072 120.271 186.27 120.36C185.556 120.36 184.709 120.271 183.728 120.093C182.836 119.914 181.988 119.647 181.186 119.29C180.472 118.933 180.026 118.487 179.848 117.952C179.758 117.595 179.714 116.347 179.714 114.206C179.803 112.065 179.892 109.523 179.981 106.58C180.16 103.548 180.338 100.337 180.517 96.9473C180.695 93.4688 180.873 90.2578 181.052 87.3145C181.319 84.2819 181.498 81.6953 181.587 79.5547C181.765 77.4141 181.854 76.1208 181.854 75.6748C181.854 74.0693 181.676 72.5531 181.319 71.126C181.052 69.6097 180.695 68.3164 180.249 67.2461C179.803 66.1758 179.268 65.373 178.644 64.8379C178.108 64.2135 177.618 63.9906 177.172 64.1689C176.012 64.3473 175.031 64.6595 174.229 65.1055C173.426 65.4622 172.757 65.8636 172.222 66.3096C171.597 66.8447 171.107 67.4691 170.75 68.1826C170.661 68.361 170.482 68.8962 170.215 69.7881C170.036 70.68 169.947 71.7057 169.947 72.8652C169.947 73.222 169.947 74.5153 169.947 76.7451C169.947 78.8857 169.903 81.4723 169.813 84.5049C169.813 87.5374 169.769 90.8376 169.68 94.4053C169.68 97.8838 169.635 101.139 169.546 104.172C169.546 107.115 169.501 109.657 169.412 111.798C169.323 113.938 169.234 115.143 169.145 115.41C168.966 115.945 168.52 116.703 167.807 117.685C167.093 118.576 166.29 119.424 165.398 120.227C164.507 121.029 163.659 121.654 162.856 122.1C162.054 122.456 161.519 122.367 161.251 121.832C160.983 121.564 160.716 120.271 160.448 117.952C160.181 115.544 159.868 112.645 159.512 109.256C159.244 105.777 158.932 102.031 158.575 98.0176C158.218 93.9147 157.906 89.9902 157.639 86.2441C157.371 82.498 157.148 79.1087 156.97 76.0762C156.791 73.0436 156.658 70.8584 156.568 69.5205C156.479 67.6475 156.39 65.5514 156.301 63.2324C156.212 60.8242 156.122 58.5944 156.033 56.543C156.033 54.4023 156.033 52.5739 156.033 51.0576C156.122 49.4521 156.301 48.471 156.568 48.1143C156.747 47.7575 157.326 47.6683 158.308 47.8467C159.378 48.0251 160.493 48.3818 161.652 48.917C162.901 49.363 164.061 49.9427 165.131 50.6562C166.201 51.2806 166.915 51.9049 167.271 52.5293C167.45 53.0645 167.673 53.6888 167.94 54.4023C168.208 55.0267 168.431 56.097 168.609 57.6133C170.126 56.7214 171.776 55.9186 173.56 55.2051C175.343 54.4023 177.083 53.8226 178.777 53.4658C180.561 53.0199 182.256 52.8861 183.861 53.0645C185.467 53.1536 186.894 53.5996 188.143 54.4023C188.945 55.0267 189.748 56.097 190.551 57.6133C191.443 59.1296 192.201 60.9134 192.825 62.9648C193.539 65.0163 194.074 67.2015 194.431 69.5205C194.877 71.7503 195.1 73.891 195.1 75.9424ZM241.123 75.9424C241.123 77.3695 240.945 79.4209 240.588 82.0967C240.32 84.7725 239.919 87.7158 239.384 90.9268C238.849 94.0485 238.269 97.304 237.645 100.693C237.109 103.993 236.53 107.026 235.905 109.791C235.37 112.556 234.88 114.875 234.434 116.748C234.077 118.621 233.854 119.647 233.765 119.825C233.586 120.093 233.096 120.271 232.293 120.36C231.579 120.36 230.732 120.271 229.751 120.093C228.859 119.914 228.012 119.647 227.209 119.29C226.495 118.933 226.049 118.487 225.871 117.952C225.782 117.595 225.737 116.347 225.737 114.206C225.826 112.065 225.916 109.523 226.005 106.58C226.183 103.548 226.362 100.337 226.54 96.9473C226.718 93.4688 226.897 90.2578 227.075 87.3145C227.343 84.2819 227.521 81.6953 227.61 79.5547C227.789 77.4141 227.878 76.1208 227.878 75.6748C227.878 74.0693 227.7 72.5531 227.343 71.126C227.075 69.6097 226.718 68.3164 226.272 67.2461C225.826 66.1758 225.291 65.373 224.667 64.8379C224.132 64.2135 223.641 63.9906 223.195 64.1689C222.036 64.3473 221.055 64.6595 220.252 65.1055C219.449 65.4622 218.78 65.8636 218.245 66.3096C217.621 66.8447 217.13 67.4691 216.773 68.1826C216.684 68.361 216.506 68.8962 216.238 69.7881C216.06 70.68 215.971 71.7057 215.971 72.8652C215.971 73.222 215.971 74.5153 215.971 76.7451C215.971 78.8857 215.926 81.4723 215.837 84.5049C215.837 87.5374 215.792 90.8376 215.703 94.4053C215.703 97.8838 215.659 101.139 215.569 104.172C215.569 107.115 215.525 109.657 215.436 111.798C215.346 113.938 215.257 115.143 215.168 115.41C214.99 115.945 214.544 116.703 213.83 117.685C213.117 118.576 212.314 119.424 211.422 120.227C210.53 121.029 209.683 121.654 208.88 122.1C208.077 122.456 207.542 122.367 207.274 121.832C207.007 121.564 206.739 120.271 206.472 117.952C206.204 115.544 205.892 112.645 205.535 109.256C205.268 105.777 204.955 102.031 204.599 98.0176C204.242 93.9147 203.93 89.9902 203.662 86.2441C203.395 82.498 203.172 79.1087 202.993 76.0762C202.815 73.0436 202.681 70.8584 202.592 69.5205C202.503 67.6475 202.413 65.5514 202.324 63.2324C202.235 60.8242 202.146 58.5944 202.057 56.543C202.057 54.4023 202.057 52.5739 202.057 51.0576C202.146 49.4521 202.324 48.471 202.592 48.1143C202.77 47.7575 203.35 47.6683 204.331 47.8467C205.401 48.0251 206.516 48.3818 207.676 48.917C208.924 49.363 210.084 49.9427 211.154 50.6562C212.225 51.2806 212.938 51.9049 213.295 52.5293C213.473 53.0645 213.696 53.6888 213.964 54.4023C214.231 55.0267 214.454 56.097 214.633 57.6133C216.149 56.7214 217.799 55.9186 219.583 55.2051C221.367 54.4023 223.106 53.8226 224.801 53.4658C226.585 53.0199 228.279 52.8861 229.885 53.0645C231.49 53.1536 232.917 53.5996 234.166 54.4023C234.969 55.0267 235.771 56.097 236.574 57.6133C237.466 59.1296 238.224 60.9134 238.849 62.9648C239.562 65.0163 240.097 67.2015 240.454 69.5205C240.9 71.7503 241.123 73.891 241.123 75.9424ZM260.389 37.5449C260.121 39.5964 259.675 42.0492 259.051 44.9033C258.426 47.6683 257.757 50.3887 257.044 53.0645C256.42 55.7402 255.751 58.1484 255.037 60.2891C254.413 62.3405 253.878 63.6784 253.432 64.3027C253.075 64.7487 252.54 65.1055 251.826 65.373C251.113 65.6406 250.354 65.7744 249.552 65.7744C248.838 65.7744 248.08 65.6406 247.277 65.373C246.564 65.0163 246.029 64.5257 245.672 63.9014C245.404 63.5446 245.271 62.2959 245.271 60.1553C245.271 57.9255 245.315 55.5173 245.404 52.9307C245.493 50.2549 245.583 47.7129 245.672 45.3047C245.85 42.8965 246.029 41.2018 246.207 40.2207C246.385 39.1504 246.519 38.3923 246.608 37.9463C246.698 37.5003 246.831 37.0544 247.01 36.6084C247.456 35.5381 248.348 34.6016 249.686 33.7988C251.113 32.9961 252.584 32.3717 254.101 31.9258C255.706 31.4798 257.133 31.3014 258.382 31.3906C259.631 31.3906 260.389 31.792 260.656 32.5947C260.835 33.0407 260.879 33.7988 260.79 34.8691C260.701 35.8503 260.567 36.7422 260.389 37.5449ZM304.138 66.1758C304.227 67.1569 304.049 68.6732 303.603 70.7246C303.246 72.776 302.666 74.8275 301.863 76.8789C301.15 78.9303 300.169 80.7142 298.92 82.2305C297.76 83.7467 296.423 84.5049 294.906 84.5049C293.836 84.5049 292.944 83.6576 292.23 81.9629C291.606 80.2682 291.116 78.306 290.759 76.0762C290.491 73.7572 290.268 71.4827 290.09 69.2529C289.911 67.0231 289.733 65.4622 289.555 64.5703C289.287 64.1243 288.752 63.723 287.949 63.3662C287.236 62.9202 286.522 62.6973 285.809 62.6973C285.095 62.6973 284.292 63.277 283.4 64.4365C282.508 65.596 281.617 66.9339 280.725 68.4502C279.922 69.9665 279.208 71.4827 278.584 72.999C278.049 74.5153 277.826 75.6302 277.915 76.3438C277.915 76.8789 278.495 77.8154 279.654 79.1533C280.814 80.4912 282.241 82.0967 283.936 83.9697C285.719 85.7536 287.592 87.7158 289.555 89.8564C291.606 91.9079 293.479 94.0039 295.174 96.1445C296.868 98.196 298.296 100.158 299.455 102.031C300.704 103.904 301.373 105.51 301.462 106.848C301.551 108.453 301.105 110.505 300.124 113.002C299.232 115.499 298.073 117.908 296.646 120.227C295.218 122.546 293.702 124.552 292.097 126.247C290.491 127.942 289.064 128.834 287.815 128.923C286.567 129.012 284.738 128.343 282.33 126.916C280.011 125.4 277.647 123.66 275.239 121.698C272.92 119.647 270.824 117.64 268.951 115.678C267.167 113.715 266.142 112.288 265.874 111.396C265.606 110.594 265.428 109.523 265.339 108.186C265.339 106.848 265.383 105.51 265.473 104.172C265.651 102.834 265.919 101.719 266.275 100.827C266.632 99.846 267.078 99.3555 267.613 99.3555C268.148 99.3555 269.219 100.292 270.824 102.165C272.43 103.949 274.169 106 276.042 108.319C277.915 110.549 279.743 112.601 281.527 114.474C283.311 116.257 284.604 117.149 285.407 117.149C285.853 117.149 286.344 116.837 286.879 116.213C287.414 115.499 287.905 114.697 288.351 113.805C288.797 112.913 289.153 112.021 289.421 111.129C289.778 110.148 289.956 109.39 289.956 108.854C289.867 108.052 289.153 106.892 287.815 105.376C286.478 103.86 284.783 102.165 282.731 100.292C280.68 98.4189 278.45 96.4567 276.042 94.4053C273.634 92.2646 271.404 90.2578 269.353 88.3848C267.301 86.5117 265.606 84.8171 264.269 83.3008C262.931 81.7845 262.217 80.625 262.128 79.8223C262.039 79.0195 262.306 77.7708 262.931 76.0762C263.555 74.2923 264.358 72.3747 265.339 70.3232C266.32 68.1826 267.435 65.9974 268.684 63.7676C270.021 61.5378 271.359 59.4863 272.697 57.6133C274.035 55.7402 275.328 54.224 276.577 53.0645C277.915 51.8158 279.075 51.1914 280.056 51.1914C282.018 51.1914 284.337 51.7266 287.013 52.7969C289.778 53.8672 292.409 55.2051 294.906 56.8105C297.404 58.3268 299.544 59.9323 301.328 61.627C303.112 63.3216 304.049 64.8379 304.138 66.1758Z" fill="#BC5332"/>
</svg>
